<svg width="70" height="70" viewBox="0 0 260 260" fill="none" xmlns="http://www.w3.org/2000/svg">
<rect x="20" y="20" width="220" height="220" stroke="black" stroke-width="6"/>
<rect x="97" y="35" width="6" height="126" fill="black"/>
<rect x="188" y="35" width="6" height="126" fill="black"/>
<rect x="93.4268" y="99.9155" width="6" height="178.735" transform="rotate(-45 93.4268 99.9155)" fill="black"/>
<rect x="162.242" y="226.054" width="6" height="86" transform="rotate(-135 162.242 226.054)" fill="black"/>
<rect x="45" y="96" width="94" height="6" fill="black"/>
<rect x="97" y="35" width="42" height="6" fill="black"/>
<rect x="35" y="158.615" width="42" height="6" fill="black"/>
<rect x="35" y="220" width="42" height="6" fill="black"/>
<rect x="158" y="58" width="6" height="21" fill="black"/>
<rect x="96" y="181.615" width="6" height="21" fill="black"/>
<path d="M158 58C154.578 47.9415 150.703 44.0278 139 41.2424L139 34.9999C156.718 37.8014 161.663 43.3191 164 58L158 58Z" fill="black"/>
<path d="M96 181.615C92.5782 171.556 88.7032 167.643 77.0003 164.857L77.0003 158.615C94.7177 161.416 99.6627 166.934 102 181.615L96 181.615Z" fill="black"/>
<path d="M157.999 79.0001C154.578 88.9255 150.575 93.2943 139 96.0001L139 102C156.518 99.3022 161.631 93.4972 163.999 79.0001L157.999 79.0001Z" fill="black"/>
<path d="M95.9988 202.615C92.5778 212.54 88.5748 217.294 77 220L76.9996 226C94.5175 223.302 99.6308 217.112 101.999 202.615L95.9988 202.615Z" fill="black"/>
<rect x="35" y="226" width="68" height="6" transform="rotate(-90 35 226)" fill="black"/>
<path d="M34.9981 158C37.4271 66.0809 56.2011 49.078 96.9981 35V41C54.1951 56.4806 44.4692 85.7641 40.9981 158H34.9981Z" fill="black"/>
<path d="M162 192.5C162 209.303 148.163 223 131 223C113.837 223 100 209.303 100 192.5C100 175.697 113.837 162 131 162C148.163 162 162 175.697 162 192.5Z" stroke="black" stroke-width="6"/>
<rect x="161" y="35" width="60" height="6" fill="black"/>
</svg>
