<svg width="94" height="24" viewBox="0 0 94 24" fill="none" xmlns="http://www.w3.org/2000/svg">
<path d="M8.688 12.24H4.152L6.288 6.84L8.688 12.24ZM3.864 12.456C2.016 16.68 0.72 16.872 0 16.92V17.112H6.912V16.92C4.032 16.92 3.6 13.56 4.08 12.456H8.784L9.552 14.112C9.552 14.112 10.992 16.92 9.072 16.92V17.112H17.472V16.92C16.992 16.872 16.176 16.848 15.312 14.928C15.312 14.928 14.904 14.136 8.832 0.216H8.712L3.864 12.456Z" fill="#2A2B33"/>
<path d="M25.0972 9.096H24.3533V0.432H25.0972C27.9053 0.432 28.5293 0.216 28.5293 4.8C28.5293 9.144 28.2173 9.096 25.0972 9.096ZM33.8812 14.064C32.7052 9.744 31.3132 9.144 28.5532 9.144C30.8573 9.144 34.1693 8.4 34.1693 4.8C34.1693 0.792001 29.8732 0.216 25.0972 0.216H18.2812V0.408C19.3372 0.408 19.5292 1.056 19.5292 2.544V21C19.5292 23.448 19.3132 23.496 18.2812 23.496V23.712H25.4573V23.496C24.4493 23.496 24.3533 23.352 24.3533 21V9.312H25.4813C25.4813 9.312 28.3612 9.168 28.6733 11.568C29.2493 16.032 29.7773 17.112 31.4813 17.112H36.2573V16.896C35.6333 16.848 34.3612 15.888 33.8812 14.064Z" fill="#2A2B33"/>
<path d="M44.3558 16.896H43.2998V0.432H44.3558C47.3078 0.432 48.7477 1.056 48.7477 8.736C48.7477 16.56 47.1878 16.896 44.3558 16.896ZM44.3558 0.216H37.2518V0.408C38.3078 0.408 38.6678 2.04 38.6678 3.528V13.824C38.6678 15.456 38.2838 16.896 37.2518 16.896V17.112H44.3558C49.1318 17.112 54.7718 15.744 54.7718 8.736C54.7718 1.704 49.1318 0.216 44.3558 0.216Z" fill="#2A2B33"/>
<path d="M65.7015 17.112C62.8455 17.112 62.7255 15.384 62.7255 8.784C62.7255 2.208 62.8455 0.216 65.7015 0.216C68.5335 0.216 68.6295 2.208 68.6295 8.784C68.6295 15.384 68.5335 17.112 65.7015 17.112ZM65.7015 0C60.4215 0 56.9415 4.032 56.9415 8.784C56.9415 13.56 60.4215 17.328 65.7015 17.328C70.9815 17.328 74.4615 13.56 74.4615 8.784C74.4615 4.032 70.9815 0 65.7015 0Z" fill="#2A2B33"/>
<path d="M90.5488 14.592C90.5488 14.592 87.5968 10.32 85.2688 7.008L86.5648 5.208C89.9728 0.456001 91.6528 0.480001 92.2528 0.408V0.216H85.6048V0.408C88.5328 0.408 87.1888 4.008 86.4208 5.064C85.6768 6.12 85.1728 6.816 85.1728 6.816L82.0768 2.472C80.9248 0.864 81.6928 0.408 82.4608 0.408V0.216H73.9888V0.408C74.6128 0.480001 75.3088 0.912001 76.7488 2.784L82.1248 10.488L80.8528 12.288C77.0608 17.112 75.3328 16.872 74.7568 16.92V17.112H82.1488V16.92C79.7008 16.92 79.9888 13.848 80.9968 12.408L82.2448 10.656L84.9808 14.64C84.9808 14.64 86.4688 16.92 85.1248 16.92V17.112H93.2848V16.92C92.6608 16.872 91.8688 16.344 90.5488 14.592Z" fill="#2A2B33"/>
</svg>
